<svg width="25" height="25" viewBox="0 0 25 25" fill="none" xmlns="http://www.w3.org/2000/svg">
<g clip-path="url(#clip0_50_165)">
<path d="M12.6135 2.88096C12.8882 2.17619 13.3686 1.5704 13.9923 1.14237C14.6159 0.714339 15.3539 0.483876 16.1104 0.480957C16.3093 0.480957 16.5 0.559975 16.6407 0.700627C16.7813 0.841279 16.8604 1.03204 16.8604 1.23096C16.8604 1.42987 16.7813 1.62063 16.6407 1.76129C16.5 1.90194 16.3093 1.98096 16.1104 1.98096C15.6557 1.98237 15.212 2.12092 14.8374 2.3785C14.4627 2.63608 14.1745 3.0007 14.0104 3.42471C13.9553 3.5662 13.8586 3.68767 13.7331 3.77304C13.6075 3.85841 13.459 3.90367 13.3072 3.90283C13.2178 3.90091 13.1293 3.8851 13.0447 3.85596C12.9521 3.82068 12.8673 3.76738 12.7954 3.69915C12.7235 3.63091 12.6658 3.54909 12.6257 3.45842C12.5856 3.36775 12.5639 3.27003 12.5618 3.17091C12.5597 3.07179 12.5772 2.97324 12.6135 2.88096ZM21.1729 14.7122C20.5735 14.4112 20.0658 13.9549 19.7028 13.3909C19.3398 12.8269 19.1346 12.1759 19.1088 11.5057C19.0829 10.8355 19.2373 10.1706 19.5558 9.58032C19.8743 8.99006 20.3453 8.49602 20.9197 8.14971C21.0089 8.09315 21.0854 8.01883 21.1446 7.93139C21.2038 7.84395 21.2443 7.74526 21.2636 7.64147C21.283 7.53768 21.2807 7.43102 21.2571 7.32813C21.2334 7.22525 21.1888 7.12834 21.126 7.04346C20.1069 5.74507 18.6239 4.89254 16.9891 4.66524C15.3543 4.43794 13.695 4.85357 12.3604 5.82471C11.4093 5.1329 10.2854 4.71767 9.11297 4.62495C7.94056 4.53223 6.76536 4.76563 5.71736 5.29933C4.66937 5.83303 3.78943 6.64623 3.1749 7.64897C2.56037 8.6517 2.23519 9.80489 2.23535 10.981C2.25792 13.4535 3.00427 15.8653 4.38223 17.9185C5.73223 19.9153 7.44785 21.106 8.98535 21.106H15.7354C17.8447 21.106 20.226 18.8653 21.5385 15.6685C21.6124 15.4926 21.6156 15.2951 21.5475 15.117C21.4794 14.9389 21.3452 14.7939 21.1729 14.7122Z" fill="white"/>
</g>
<defs>
<clipPath id="clip0_50_165">
<rect width="24" height="24" fill="white" transform="translate(0.360352 0.105957)"/>
</clipPath>
</defs>
</svg>
