<svg width="25" height="25" viewBox="0 0 25 25" fill="none" xmlns="http://www.w3.org/2000/svg">
<g clip-path="url(#clip0_50_171)">
<path d="M12.0635 2.35596C10.1351 2.35596 8.25005 2.92778 6.64667 3.99913C5.04329 5.07047 3.79361 6.59321 3.05566 8.37479C2.3177 10.1564 2.12462 12.1168 2.50082 14.0081C2.87703 15.8994 3.80563 17.6367 5.16919 19.0002C6.53275 20.3638 8.27004 21.2924 10.1614 21.6686C12.0527 22.0448 14.0131 21.8517 15.7946 21.1138C17.5762 20.3758 19.099 19.1261 20.1703 17.5228C21.2417 15.9194 21.8135 14.0343 21.8135 12.106C21.8085 9.52162 20.7797 7.04455 18.9523 5.21714C17.1249 3.38973 14.6478 2.36091 12.0635 2.35596ZM14.7447 15.9216C14.6545 16.0974 14.4985 16.2305 14.3107 16.292C14.1228 16.3534 13.9183 16.3382 13.7416 16.2497C13.2209 15.9886 12.646 15.8537 12.0635 15.856C11.4768 15.8534 10.8981 15.9916 10.376 16.2591C10.2702 16.3082 10.1551 16.3338 10.0385 16.3341C9.8712 16.3323 9.70932 16.2746 9.57858 16.1703C9.44784 16.0659 9.35575 15.9208 9.31695 15.7581C9.27815 15.5953 9.29488 15.4243 9.36446 15.2722C9.43405 15.12 9.5525 14.9955 9.70098 14.9185C10.4328 14.5466 11.2426 14.3538 12.0635 14.356C12.8802 14.3551 13.6858 14.5445 14.4166 14.9091C14.5931 15.0012 14.7264 15.1589 14.7877 15.3482C14.8491 15.5376 14.8337 15.7435 14.7447 15.9216ZM16.1322 13.2685C16.0877 13.3556 16.0263 13.433 15.9516 13.4963C15.8769 13.5596 15.7904 13.6074 15.6971 13.637C15.6039 13.6667 15.5056 13.6775 15.4081 13.669C15.3106 13.6604 15.2158 13.6326 15.1291 13.5872C14.1789 13.1047 13.128 12.854 12.0624 12.8556C10.9967 12.8572 9.94654 13.1111 8.99786 13.5966C8.89021 13.6509 8.77154 13.6798 8.65098 13.681C8.51257 13.6813 8.37684 13.6428 8.25919 13.5699C8.14154 13.497 8.04668 13.3925 7.98536 13.2685C7.94007 13.1805 7.91263 13.0845 7.90462 12.9858C7.89661 12.8872 7.90819 12.788 7.93869 12.6939C7.96919 12.5998 8.01801 12.5127 8.08233 12.4375C8.14665 12.3623 8.22521 12.3006 8.31348 12.256C9.47326 11.6642 10.7568 11.3557 12.0588 11.3557C13.3608 11.3557 14.6443 11.6642 15.8041 12.256C15.8924 12.3006 15.9709 12.3623 16.0353 12.4375C16.0996 12.5127 16.1484 12.5998 16.1789 12.6939C16.2094 12.788 16.221 12.8872 16.213 12.9858C16.205 13.0845 16.1775 13.1805 16.1322 13.2685ZM17.5197 10.606C17.4752 10.6931 17.4138 10.7705 17.3391 10.8338C17.2644 10.8971 17.1779 10.9449 17.0846 10.9745C16.9914 11.0042 16.8931 11.015 16.7956 11.0065C16.6981 10.9979 16.6033 10.9701 16.5166 10.9247C15.1378 10.221 13.6115 9.85468 12.0635 9.85596C10.511 9.8521 8.98044 10.2219 7.60098 10.9341C7.49704 10.9893 7.38118 11.0183 7.26348 11.0185C7.0954 11.0187 6.9321 10.9626 6.79977 10.8589C6.66744 10.7553 6.57376 10.6102 6.53376 10.447C6.49376 10.2837 6.50975 10.1117 6.57918 9.95867C6.6486 9.8056 6.76743 9.68028 6.91661 9.60283C8.50712 8.78534 10.2694 8.35812 12.0577 8.35649C13.846 8.35486 15.609 8.77886 17.201 9.59346C17.2884 9.63895 17.3661 9.70124 17.4295 9.77677C17.4928 9.8523 17.5407 9.93958 17.5703 10.0336C17.5999 10.1277 17.6107 10.2266 17.602 10.3248C17.5933 10.423 17.5654 10.5186 17.5197 10.606Z" fill="white"/>
</g>
<defs>
<clipPath id="clip0_50_171">
<rect width="24" height="24" fill="white" transform="translate(0.0634766 0.105957)"/>
</clipPath>
</defs>
</svg>
